<?xml version="1.0" standalone="no"?>
<!DOCTYPE svg PUBLIC "-//W3C//DTD SVG 20010904//EN"
 "http://www.w3.org/TR/2001/REC-SVG-20010904/DTD/svg10.dtd">
<svg version="1.0" xmlns="http://www.w3.org/2000/svg"
 width="400.000000pt" height="400.000000pt" viewBox="0 0 400.000000 400.000000"
 preserveAspectRatio="xMidYMid meet">
<metadata>
Created by potrace 1.11, written by Peter Selinger 2001-2013
</metadata>
<g transform="translate(0.000000,400.000000) scale(0.100000,-0.100000)"
fill="#000000" stroke="none">
<path d="M2130 3833 c-202 -98 -308 -325 -259 -553 24 -115 32 -98 -83 -167
-120 -71 -294 -191 -393 -272 -104 -83 -292 -275 -361 -366 -126 -167 -230
-368 -259 -503 -3 -12 -7 -32 -11 -44 -23 -96 -33 -278 -20 -368 42 -288 211
-482 464 -533 305 -63 695 65 1028 336 38 30 70 54 72 52 2 -2 -14 -30 -35
-62 -22 -32 -96 -146 -164 -253 -141 -222 -237 -354 -347 -478 -217 -246 -449
-397 -667 -437 -70 -13 -271 -12 -361 1 -158 23 -263 96 -300 207 -21 63 -25
163 -10 224 10 40 17 48 52 62 60 24 82 43 103 92 14 33 18 60 15 107 -6 96
-38 142 -124 181 -68 31 -189 25 -251 -11 -93 -55 -141 -164 -145 -333 -4
-163 28 -249 135 -369 67 -74 241 -170 346 -190 11 -3 40 -9 65 -15 109 -25
328 -33 470 -17 309 35 643 175 930 390 214 160 494 476 620 701 63 112 80
145 104 206 15 36 43 90 64 120 221 324 261 395 270 475 4 41 3 44 -24 55 -36
15 -170 19 -236 7 -107 -20 -207 -88 -276 -189 -17 -25 -61 -106 -98 -180 -96
-192 -132 -240 -259 -346 -261 -217 -577 -297 -761 -192 -151 86 -217 242
-209 499 2 63 6 126 9 140 3 14 9 41 12 60 10 60 71 234 113 321 84 177 200
346 351 513 74 81 201 204 256 246 l51 40 91 -90 c167 -164 339 -256 583 -309
116 -26 395 -35 543 -17 386 44 652 195 712 404 16 54 20 169 8 219 -8 31 -47
110 -66 133 -52 61 -195 139 -288 155 -19 3 -53 10 -76 15 -118 27 -443 29
-574 5 -14 -3 -40 -7 -57 -10 -79 -12 -104 -17 -213 -41 -218 -49 -417 -116
-618 -210 -52 -24 -95 -44 -97 -44 -15 0 -36 122 -37 217 -2 176 122 363 265
398 20 5 27 13 27 31 0 13 -1 24 -2 24 -2 0 -37 -17 -78 -37z m1214 -377 c144
-16 236 -68 280 -159 92 -187 -26 -412 -284 -542 -48 -24 -171 -71 -193 -73
-4 0 -31 -5 -60 -11 -28 -6 -65 -13 -82 -16 -46 -7 -254 -8 -310 0 -224 29
-423 131 -583 299 -70 73 -70 65 3 122 99 77 313 191 480 257 162 63 335 109
465 123 30 4 56 7 57 8 5 5 163 -2 227 -8z"/>
</g>
</svg>
