<?xml version="1.0" encoding="utf-8"?>
<!-- Generator: Adobe Illustrator 14.0.0, SVG Export Plug-In . SVG Version: 6.00 Build 43363)  -->
<!DOCTYPE svg PUBLIC "-//W3C//DTD SVG 1.1//EN" "http://www.w3.org/Graphics/SVG/1.1/DTD/svg11.dtd">
<svg version="1.1" id="Calque_1" xmlns="http://www.w3.org/2000/svg" xmlns:xlink="http://www.w3.org/1999/xlink" x="0px" y="0px"
	 width="281px" height="58px" viewBox="156.14 378.445 281 58" enable-background="new 156.14 378.445 281 58" xml:space="preserve"
	>
<path fill="#FFFFFF" stroke="#D9DADB" d="M190.226,383.793c-1.12,0.28-2.04,0.92-2.76,1.92s-1.08,2.08-1.08,3.238
	c0,0.522,0.03,1.052,0.09,1.593c0.061,0.54,0.19,1.03,0.391,1.47c1.079-0.56,2.279-1.1,3.6-1.62s2.7-0.97,4.14-1.35
	c1.44-0.38,2.9-0.69,4.38-0.932c1.48-0.24,2.9-0.358,4.261-0.358c3.08,0,5.449,0.44,7.109,1.32c1.66,0.88,2.49,2.28,2.49,4.2
	c0,1.4-0.43,2.55-1.29,3.45c-0.86,0.898-1.92,1.61-3.18,2.131c-1.26,0.52-2.59,0.88-3.99,1.079c-1.4,0.2-2.62,0.301-3.66,0.301
	c-2.76,0-5.2-0.42-7.319-1.261c-2.12-0.84-4.061-2.3-5.82-4.38c-1.24,0.96-2.48,2.101-3.72,3.42c-1.24,1.32-2.36,2.75-3.36,4.29
	s-1.8,3.16-2.4,4.86c-0.6,1.7-0.899,3.39-0.899,5.07c0,0.92,0.09,1.788,0.27,2.607c0.181,0.82,0.49,1.53,0.931,2.13
	c0.439,0.601,1.01,1.08,1.71,1.44c0.699,0.36,1.55,0.54,2.55,0.54c0.84,0,1.76-0.18,2.76-0.54s1.97-0.84,2.91-1.44
	c0.939-0.6,1.79-1.27,2.55-2.01s1.32-1.49,1.68-2.25l1.23-2.46c0.38-0.76,0.82-1.43,1.32-2.01s1.109-1.03,1.829-1.351
	c0.721-0.319,1.62-0.479,2.7-0.479c1.24,0,1.86,0.22,1.86,0.66c0,0.52-0.19,1.13-0.57,1.83c-0.38,0.699-0.81,1.409-1.29,2.13
	c-0.479,0.72-0.95,1.39-1.41,2.01s-0.77,1.15-0.93,1.59c-0.36,0.96-0.91,2.061-1.649,3.3c-0.74,1.24-1.631,2.5-2.671,3.781
	c-1.04,1.279-2.25,2.539-3.63,3.779s-2.899,2.34-4.56,3.301c-1.66,0.959-3.47,1.74-5.43,2.34s-4.061,0.9-6.301,0.9
	c-1.199,0-2.439-0.131-3.72-0.391c-1.28-0.262-2.43-0.689-3.45-1.291c-1.02-0.6-1.859-1.389-2.52-2.369s-0.99-2.17-0.99-3.57
	c0-1.279,0.29-2.42,0.87-3.419c0.58-1,1.55-1.5,2.91-1.5c0.76,0,1.46,0.22,2.1,0.66c0.641,0.439,0.96,1.22,0.96,2.339
	c0,1.279-0.72,2.08-2.16,2.4c-0.04,0.279-0.09,0.561-0.149,0.84c-0.061,0.279-0.09,0.58-0.09,0.898c0,1.039,0.189,1.869,0.569,2.49
	c0.38,0.619,0.891,1.092,1.53,1.41s1.37,0.529,2.19,0.629c0.819,0.1,1.67,0.15,2.55,0.15c2.16,0,4.12-0.551,5.88-1.65
	s3.36-2.467,4.8-4.107c1.44-1.641,2.75-3.4,3.93-5.281c1.181-1.88,2.271-3.579,3.271-5.1l-0.12-0.12c-0.8,0.72-1.67,1.4-2.61,2.04
	c-0.939,0.641-1.92,1.198-2.939,1.68c-1.021,0.482-2.08,0.87-3.18,1.171c-1.101,0.3-2.211,0.449-3.33,0.449
	c-2.641,0-4.681-0.8-6.12-2.399c-1.44-1.601-2.16-3.681-2.16-6.24c0-2.24,0.45-4.33,1.35-6.27c0.9-1.94,2.07-3.721,3.511-5.341
	c1.439-1.62,3.05-3.09,4.829-4.41c1.78-1.32,3.57-2.48,5.37-3.48c-0.12-0.44-0.229-0.86-0.33-1.26c-0.1-0.4-0.149-0.9-0.149-1.5
	c0-1.52,0.41-2.83,1.229-3.93c0.82-1.1,1.931-1.85,3.33-2.25v0.483V383.793z M209.006,392.371c0-1.198-0.43-2.147-1.29-2.85
	c-0.86-0.698-2.47-1.048-4.83-1.048c-1.12,0-2.36,0.16-3.72,0.48c-1.36,0.32-2.73,0.75-4.11,1.29s-2.68,1.16-3.899,1.86
	c-1.221,0.7-2.25,1.41-3.091,2.13c1.4,1.68,2.931,2.92,4.591,3.72c1.659,0.8,3.609,1.2,5.85,1.2c1.479,0,2.86-0.181,4.14-0.54
	c1.28-0.36,2.391-0.851,3.33-1.471c0.94-0.619,1.681-1.339,2.22-2.16c0.54-0.82,0.811-1.69,0.811-2.61V392.371z"/>
<g>
	<path fill="#FFFFFF" stroke="#D9DADB" d="M214.53,409.066l0.338,0.342l-0.525,1.12c-0.562,0.35-1.166,0.611-1.81,0.786
		c-0.646,0.176-1.33,0.262-2.059,0.262c-1.704,0-3.046-0.494-4.025-1.484c-0.98-0.988-1.471-2.38-1.471-4.17
		c0-1.133,0.145-2.072,0.434-2.813c0.234-0.603,0.62-1.104,1.154-1.502c0.535-0.398,1.152-0.777,1.853-1.138
		c0.7-0.359,1.467-0.542,2.303-0.542c1.28,0,2.34,0.36,3.176,1.076c0.836,0.715,1.254,1.87,1.254,3.457
		c0,0.198-0.016,0.495-0.047,0.894l-1.92,0.353c-0.592,0.04-1.45,0.06-2.573,0.06h-2.54c0.118,1.348,0.521,2.362,1.208,3.044
		c0.688,0.683,1.563,1.021,2.626,1.021c0.445,0,0.888-0.063,1.324-0.192C213.666,409.509,214.099,409.318,214.53,409.066
		L214.53,409.066z M208,404.52c0.703,0.063,1.406,0.096,2.109,0.096c0.616,0,1.266-0.03,1.944-0.094l0.012-0.553
		c0-0.963-0.176-1.668-0.526-2.109c-0.354-0.442-0.83-0.665-1.431-0.665c-0.423,0-0.785,0.104-1.09,0.312
		c-0.304,0.207-0.532,0.5-0.68,0.877c-0.148,0.376-0.26,1.09-0.34,2.141L208,404.52z M218.184,407.533
		c0.04,1.008,0.09,1.569,0.152,1.688c0.17,0.32,0.493,0.604,0.965,0.846c0.472,0.241,1.02,0.362,1.644,0.362
		c0.765,0,1.334-0.155,1.714-0.473c0.378-0.314,0.566-0.732,0.566-1.252c0-0.45-0.137-0.805-0.41-1.064
		c-0.272-0.26-0.859-0.484-1.758-0.68c-1.36-0.298-2.244-0.558-2.654-0.78c-0.409-0.222-0.735-0.553-0.979-0.989
		c-0.244-0.438-0.362-0.96-0.362-1.57c0-0.72,0.181-1.355,0.538-1.91c0.358-0.555,0.875-0.99,1.55-1.307
		c0.677-0.316,1.567-0.476,2.676-0.476c1.153,0,2.227,0.188,3.218,0.562c-0.104,0.637-0.173,1.625-0.21,2.965h-0.927
		c-0.047-0.844-0.112-1.34-0.199-1.488c-0.116-0.227-0.34-0.418-0.667-0.574c-0.453-0.21-0.938-0.315-1.453-0.315
		c-0.656,0-1.166,0.146-1.53,0.439c-0.362,0.29-0.544,0.657-0.544,1.104c0,0.412,0.164,0.738,0.492,0.979
		c0.328,0.248,1.109,0.486,2.344,0.71c0.853,0.157,1.44,0.303,1.771,0.436c0.547,0.233,0.963,0.578,1.248,1.026
		c0.284,0.45,0.428,1.021,0.428,1.711c0,1.319-0.51,2.335-1.533,3.037c-1.023,0.705-2.24,1.058-3.652,1.058
		c-0.468,0-0.986-0.056-1.557-0.162c-0.568-0.107-1.188-0.269-1.86-0.475l-0.175-0.197c0.094-0.681,0.152-1.748,0.176-3.21h0.994
		H218.184z M226.985,401.908l1.561-1.021c-0.021-1.383-0.059-2.594-0.118-3.633c1.066-0.328,2.074-0.727,3.023-1.195l0.352,0.27
		c-0.172,1.133-0.29,2.652-0.352,4.56c0.359,0.061,0.715,0.094,1.065,0.094c0.797,0,1.512-0.056,2.146-0.164l0.105,0.069
		l-0.104,0.42c-0.116,0.44-0.202,0.841-0.258,1.208c-0.913-0.062-1.586-0.094-2.016-0.094c-0.32,0-0.633,0.017-0.938,0.047
		c-0.018,0.792-0.024,1.487-0.024,2.09c0,2.631,0.078,4.124,0.234,4.485c0.155,0.36,0.526,0.54,1.112,0.54
		c0.172,0,0.357-0.02,0.558-0.06s0.412-0.095,0.64-0.164l0.198,0.445c-0.47,0.523-0.926,1.066-1.37,1.631
		c-0.29,0.046-0.556,0.079-0.798,0.104s-0.465,0.035-0.668,0.035c-0.656,0-1.205-0.113-1.646-0.34
		c-0.44-0.228-0.762-0.521-0.96-0.88c-0.2-0.36-0.3-0.896-0.3-1.608c0-0.375,0.02-1.36,0.06-2.957
		c0.038-1.398,0.059-2.506,0.059-3.32l-0.599-0.022c-0.25,0-0.569,0.022-0.96,0.069v-0.609H226.985z M235.446,411.33v-0.96
		c0.884-0.032,1.394-0.087,1.53-0.165s0.225-0.297,0.263-0.656c0.061-0.495,0.094-1.58,0.094-3.265c0-0.728-0.013-1.4-0.035-2.019
		l-0.035-1.373c0-0.452-0.05-0.731-0.146-0.838c-0.099-0.106-0.36-0.168-0.79-0.184l-0.881-0.035v-0.902
		c1.884-0.14,3.435-0.479,4.652-1.008l0.292,0.236c-0.117,1.494-0.176,3.672-0.176,6.53c0,1.649,0.027,2.649,0.082,2.992
		c0.04,0.244,0.11,0.4,0.215,0.471c0.104,0.069,0.615,0.142,1.53,0.212v0.96c-1.408-0.046-2.498-0.07-3.271-0.07
		c-0.412,0.002-1.52,0.025-3.327,0.072L235.446,411.33z M238.704,394.326c0.5,0,0.928,0.178,1.282,0.533
		c0.355,0.355,0.533,0.786,0.533,1.294c0,0.5-0.178,0.928-0.533,1.283c-0.354,0.355-0.786,0.533-1.295,0.533
		c-0.5,0-0.928-0.178-1.282-0.533c-0.355-0.354-0.534-0.782-0.534-1.283c0-0.508,0.178-0.94,0.533-1.295
		c0.354-0.355,0.785-0.534,1.294-0.534L238.704,394.326z M243.66,405.758c0-1.854,0.435-3.244,1.302-4.176
		c1.04-1.102,2.54-1.654,4.5-1.654c1.953,0,3.38,0.443,4.276,1.326c0.897,0.885,1.348,2.28,1.348,4.188
		c0,1.963-0.519,3.477-1.553,4.54c-1.035,1.062-2.476,1.595-4.318,1.595c-1.812,0-3.19-0.496-4.137-1.49
		c-0.947-0.993-1.42-2.437-1.42-4.33L243.66,405.758z M246.907,404.953c0,2.084,0.266,3.568,0.797,4.453
		c0.414,0.682,1.034,1.02,1.862,1.02c0.728,0,1.287-0.288,1.683-0.868c0.395-0.58,0.59-1.633,0.59-3.159
		c0-2.101-0.24-3.551-0.727-4.357c-0.397-0.642-1.02-0.964-1.862-0.964c-0.727,0-1.298,0.295-1.716,0.88
		C247.116,402.547,246.907,403.547,246.907,404.953L246.907,404.953z M256.715,411.33v-0.96c0.852-0.048,1.332-0.116,1.439-0.206
		c0.108-0.09,0.178-0.29,0.2-0.604c0.047-0.79,0.07-2.184,0.07-4.178c0-0.985-0.016-1.834-0.047-2.547
		c-0.017-0.438-0.046-0.695-0.093-0.773c-0.04-0.063-0.101-0.109-0.188-0.143s-0.547-0.06-1.385-0.083v-0.902
		c0.423,0,1.083-0.09,1.979-0.27c0.896-0.184,1.65-0.395,2.261-0.63l0.316-0.107c0.11,0,0.165,0.09,0.165,0.271l-0.012,0.104
		c-0.023,0.22-0.035,0.78-0.035,1.688l1.813-1.522c0.227-0.194,0.46-0.328,0.702-0.397c0.344-0.095,0.761-0.141,1.253-0.141
		c0.826,0,1.503,0.145,2.029,0.431c0.525,0.283,0.912,0.68,1.158,1.185c0.245,0.506,0.368,1.29,0.368,2.355
		c0,0.47-0.01,1.014-0.034,1.633c-0.04,1.268-0.06,2.362-0.06,3.287c0,0.524,0.044,0.89,0.13,1.094
		c0.062,0.14,0.149,0.233,0.264,0.28c0.114,0.046,0.54,0.105,1.283,0.177v0.962l-1.44-0.047l-0.927-0.023l-2.414,0.07l-0.13-0.152
		c0.204-1.485,0.306-3.012,0.306-4.576c0-1.985-0.12-3.21-0.362-3.672c-0.312-0.594-0.884-0.893-1.71-0.893
		c-0.532,0-0.993,0.136-1.385,0.405c-0.391,0.269-0.644,0.56-0.76,0.862c-0.056,0.125-0.083,0.521-0.083,1.188
		c0,2.836,0.012,4.46,0.035,4.87s0.09,0.665,0.2,0.76c0.14,0.116,0.663,0.198,1.569,0.245v0.962c-1.359-0.047-2.51-0.07-3.445-0.07
		c-0.55-0.002-1.562,0.021-3.03,0.068L256.715,411.33z"/>
</g>
<path fill="#FFFFFF" stroke="#D9DADB" d="M318.403,414.502c-1.561,1.4-3.23,2.48-5.011,3.238c-1.779,0.762-3.489,1.14-5.13,1.14
	c-1.882,0-3.58-0.278-5.1-0.84c-1.282,1.6-2.7,3.192-4.261,4.77c-1.562,1.582-3.229,2.992-5.012,4.23c-1.78,1.24-3.67,2.24-5.67,3
	s-4.08,1.141-6.24,1.141c-2.002,0-3.67-0.299-5.01-0.898c-1.342-0.602-2.422-1.41-3.24-2.432c-0.819-1.02-1.399-2.18-1.739-3.479
	c-0.341-1.301-0.511-2.67-0.511-4.111c0-2.197,0.351-4.46,1.05-6.779c0.698-2.318,1.681-4.568,2.94-6.75
	c1.26-2.181,2.75-4.261,4.47-6.24c1.721-1.98,3.58-3.73,5.58-5.248c2-1.52,4.11-2.78,6.33-3.78s4.45-1.6,6.69-1.8
	c1.279-1.2,2.449-1.96,3.51-2.28c1.06-0.32,2.07-0.48,3.03-0.48c2.399,0,4.17,0.898,5.31,2.7c1.141,1.802,1.71,4.1,1.71,6.9
	c0,1.76-0.25,3.59-0.75,5.487c-0.5,1.899-1.149,3.763-1.949,5.58c-0.801,1.823-1.7,3.583-2.7,5.282
	c-1.001,1.699-2.001,3.229-3.001,4.59c0.681,0.319,1.391,0.52,2.131,0.6s1.51,0.12,2.31,0.12c0.96,0,1.91-0.12,2.853-0.36
	c0.939-0.239,1.85-0.56,2.729-0.96c0.88-0.399,1.688-0.84,2.431-1.319c0.739-0.48,1.369-0.96,1.89-1.438L318.403,414.502
	L318.403,414.502z M292.782,403.042c0-2.32,0.449-4.57,1.35-6.75c0.9-2.18,2.13-4.11,3.69-5.79l-0.12-0.12
	c-2,0.4-3.88,1.17-5.641,2.31c-1.762,1.14-3.39,2.52-4.89,4.14s-2.842,3.43-4.021,5.43c-1.182,2-2.183,4.062-3,6.181
	c-0.819,2.122-1.451,4.229-1.892,6.33c-0.44,2.1-0.66,4.09-0.66,5.97c0,1.201,0.101,2.359,0.3,3.48c0.2,1.119,0.53,2.109,0.99,2.971
	s1.08,1.551,1.86,2.068c0.779,0.521,1.75,0.781,2.91,0.781c1.76,0,3.5-0.43,5.22-1.291c1.72-0.859,3.35-1.93,4.89-3.209
	c1.54-1.281,2.92-2.691,4.141-4.23c1.22-1.54,2.21-2.988,2.97-4.351c-1.24-0.68-2.36-1.51-3.36-2.49c-1-0.979-1.85-2.078-2.55-3.3
	s-1.24-2.52-1.62-3.899c-0.38-1.381-0.569-2.792-0.569-4.23H292.782z M303.102,396.742c0.08-0.24,0.141-0.58,0.181-1.02
	s0.06-0.84,0.06-1.2c0-0.56-0.08-1.11-0.24-1.65s-0.42-1-0.777-1.38c-0.36-0.38-0.83-0.68-1.41-0.9
	c-0.58-0.218-1.311-0.31-2.19-0.27c-0.6,0.64-1.12,1.41-1.56,2.31c-0.44,0.9-0.811,1.86-1.11,2.88s-0.52,2.062-0.66,3.12
	c-0.14,1.061-0.21,2.05-0.21,2.97c0,1.32,0.101,2.7,0.3,4.141c0.2,1.439,0.54,2.832,1.021,4.172c0.479,1.34,1.109,2.57,1.89,3.69
	c0.78,1.119,1.772,2.02,2.971,2.697c0.88-1.439,1.689-3.01,2.432-4.71c0.74-1.7,1.37-3.438,1.89-5.22
	c0.521-1.78,0.921-3.56,1.2-5.34c0.28-1.78,0.42-3.488,0.42-5.13c0-1.04-0.079-2.02-0.239-2.94s-0.42-1.725-0.78-2.418
	c-0.36-0.69-0.84-1.23-1.44-1.62c-0.6-0.39-1.34-0.58-2.22-0.58c-0.72,0-1.34,0.114-1.86,0.347c-0.52,0.23-0.979,0.54-1.38,0.927
	c0.88,0.04,1.62,0.197,2.22,0.473c0.601,0.276,1.08,0.645,1.44,1.104c0.36,0.46,0.62,0.99,0.78,1.59s0.239,1.2,0.239,1.8
	c0,0.48-0.029,0.892-0.09,1.23c-0.06,0.342-0.13,0.672-0.21,0.99L303.102,396.742L303.102,396.742z"/>
<g>
	<path fill="#FFFFFF" stroke="#D9DADB" d="M322.078,404.248h-0.96c-0.056-0.93-0.122-1.465-0.2-1.605
		c-0.102-0.22-0.33-0.418-0.688-0.598c-0.358-0.18-0.806-0.27-1.347-0.27c-0.83,0-1.435,0.237-1.813,0.71
		c-0.38,0.476-0.57,1.326-0.57,2.558c0,1.56,0.355,2.764,1.066,3.613c0.712,0.852,1.626,1.274,2.743,1.274
		c0.406,0,0.78-0.033,1.12-0.104s0.65-0.172,0.931-0.305l0.197,0.26c-0.17,0.372-0.33,0.75-0.477,1.13
		c-0.515,0.256-1.04,0.447-1.575,0.576c-0.535,0.127-1.077,0.189-1.624,0.189c-1.703,0-3.03-0.47-3.979-1.413
		c-0.95-0.939-1.425-2.279-1.425-4.018c0-0.64,0.062-1.22,0.188-1.74c0.125-0.52,0.295-0.963,0.51-1.326
		c0.215-0.362,0.45-0.659,0.71-0.888c0.155-0.125,0.827-0.56,2.016-1.3c0.693-0.44,1.199-0.71,1.517-0.812
		c0.317-0.102,0.74-0.151,1.27-0.151c0.471,0,0.928,0.035,1.372,0.104c0.445,0.07,0.878,0.176,1.301,0.316l0.199,0.21
		C322.278,401.967,322.117,403.162,322.078,404.248L322.078,404.248z M333.975,409.168l0.339,0.342l-0.525,1.12
		c-0.562,0.351-1.166,0.612-1.81,0.786c-0.646,0.176-1.33,0.262-2.059,0.262c-1.703,0-3.046-0.494-4.026-1.483
		c-0.979-0.988-1.472-2.38-1.472-4.17c0-1.134,0.146-2.072,0.435-2.814c0.233-0.602,0.619-1.104,1.153-1.502
		s1.152-0.777,1.853-1.137c0.7-0.36,1.467-0.54,2.303-0.54c1.28,0,2.34,0.359,3.176,1.074c0.837,0.717,1.255,1.869,1.255,3.46
		c0,0.195-0.016,0.492-0.047,0.892l-1.918,0.352c-0.594,0.04-1.45,0.061-2.574,0.061h-2.54c0.118,1.347,0.521,2.361,1.208,3.044
		c0.688,0.682,1.563,1.02,2.627,1.02c0.446,0,0.889-0.062,1.325-0.191c0.438-0.129,0.87-0.32,1.3-0.572L333.975,409.168z
		 M327.819,399.01h-1.158l2.714-2.625c0.64-0.617,1.07-0.99,1.292-1.12c0.222-0.13,0.454-0.192,0.695-0.192
		c0.298,0,0.538,0.088,0.72,0.264c0.182,0.176,0.275,0.396,0.275,0.662c0,0.233-0.076,0.433-0.229,0.597
		c-0.152,0.164-0.63,0.457-1.433,0.88L327.819,399.01L327.819,399.01z M327.446,404.623c0.703,0.062,1.405,0.094,2.109,0.094
		c0.616,0,1.266-0.029,1.944-0.094l0.01-0.553c0-0.963-0.175-1.668-0.525-2.11c-0.353-0.442-0.828-0.665-1.431-0.665
		c-0.422,0-0.785,0.104-1.09,0.312c-0.305,0.207-0.53,0.5-0.68,0.875c-0.147,0.377-0.26,1.09-0.34,2.14L327.446,404.623z
		 M346.981,410.47v0.962l-0.904-0.034c-0.48-0.023-0.955-0.035-1.435-0.035c-0.735,0-1.434,0.022-2.09,0.069l-0.12-0.127
		l0.118-1.606l-2.443,1.83c-0.438,0.1-0.823,0.149-1.157,0.149c-0.828,0-1.468-0.246-1.92-0.737
		c-0.452-0.492-0.681-1.21-0.681-2.156c0-1.164,0.311-1.984,0.926-2.46c0.796-0.626,2.555-1.186,5.274-1.678
		c-0.016-0.926-0.175-1.596-0.479-2.012c-0.429-0.572-1.091-0.859-1.985-0.859c-0.21,0-0.428,0.025-0.65,0.076
		c-0.222,0.052-0.444,0.131-0.67,0.24l-0.526,1.254l-0.811-0.2l0.024-0.525l-0.012-0.517l-0.013-0.47
		c1.195-0.74,2.056-1.206,2.578-1.394c0.383-0.141,0.914-0.21,1.594-0.21c0.923,0,1.673,0.138,2.25,0.417
		c0.578,0.276,1,0.655,1.267,1.133c0.266,0.479,0.397,1.174,0.397,2.09c0,0.385-0.016,1.07-0.047,2.057
		c-0.03,1.019-0.047,1.836-0.047,2.455c0,0.98,0.027,1.572,0.082,1.785c0.03,0.125,0.107,0.223,0.23,0.293s0.537,0.141,1.247,0.21
		H346.981z M342.55,405.654c-1.368,0.3-2.26,0.62-2.673,0.97c-0.412,0.35-0.62,0.817-0.62,1.405c0,0.478,0.134,0.853,0.398,1.128
		c0.265,0.272,0.6,0.41,1.005,0.41c0.614,0,1.245-0.349,1.89-1.046v-2.869V405.654z M348.176,411.432v-0.96
		c0.853-0.048,1.332-0.115,1.44-0.206c0.107-0.09,0.177-0.29,0.2-0.604c0.047-0.79,0.069-2.184,0.069-4.178
		c0-0.986-0.016-1.836-0.047-2.547c-0.017-0.438-0.047-0.695-0.093-0.775c-0.04-0.062-0.102-0.11-0.188-0.14
		c-0.086-0.032-0.548-0.061-1.386-0.083v-0.903c0.424,0,1.083-0.09,1.98-0.271c0.896-0.183,1.649-0.394,2.26-0.63l0.318-0.106
		c0.109,0,0.164,0.09,0.164,0.27l-0.013,0.105c-0.022,0.22-0.035,0.779-0.035,1.688l1.813-1.522c0.226-0.195,0.46-0.328,0.7-0.398
		c0.345-0.094,0.762-0.14,1.253-0.14c0.827,0,1.504,0.142,2.029,0.43c0.526,0.284,0.913,0.68,1.158,1.185
		c0.245,0.507,0.368,1.29,0.368,2.355c0,0.47-0.012,1.014-0.035,1.633c-0.04,1.269-0.06,2.363-0.06,3.287
		c0,0.525,0.044,0.89,0.13,1.094c0.062,0.141,0.15,0.234,0.264,0.28c0.114,0.046,0.542,0.106,1.284,0.177v0.96l-1.439-0.046
		l-0.928-0.022l-2.414,0.069l-0.13-0.151c0.204-1.486,0.307-3.013,0.307-4.576c0-1.986-0.122-3.21-0.364-3.672
		c-0.312-0.597-0.883-0.894-1.71-0.894c-0.532,0-0.993,0.137-1.384,0.407s-0.646,0.561-0.763,0.863
		c-0.055,0.125-0.082,0.52-0.082,1.188c0,2.836,0.013,4.46,0.035,4.87c0.023,0.41,0.09,0.665,0.2,0.76
		c0.14,0.116,0.663,0.198,1.57,0.245v0.96c-1.36-0.046-2.511-0.069-3.446-0.069c-0.55-0.002-1.562,0.021-3.03,0.069L348.176,411.432
		z M362.836,411.432v-0.96c0.852-0.048,1.332-0.115,1.44-0.206c0.107-0.09,0.177-0.29,0.199-0.604c0.048-0.79,0.07-2.184,0.07-4.178
		c0-0.986-0.016-1.836-0.047-2.547c-0.017-0.438-0.047-0.695-0.093-0.775c-0.04-0.062-0.103-0.11-0.188-0.14
		c-0.086-0.032-0.548-0.061-1.386-0.083v-0.903c0.424,0,1.083-0.09,1.98-0.271c0.896-0.183,1.649-0.394,2.26-0.63l0.317-0.106
		c0.11,0,0.164,0.09,0.164,0.27l-0.012,0.105c-0.022,0.22-0.035,0.779-0.035,1.688l1.813-1.522c0.226-0.195,0.46-0.328,0.7-0.398
		c0.345-0.094,0.762-0.14,1.253-0.14c0.826,0,1.504,0.142,2.029,0.43c0.526,0.284,0.913,0.68,1.158,1.185
		c0.245,0.507,0.368,1.29,0.368,2.355c0,0.47-0.012,1.014-0.035,1.633c-0.04,1.269-0.06,2.363-0.06,3.287
		c0,0.525,0.044,0.89,0.13,1.094c0.062,0.141,0.149,0.234,0.264,0.28s0.542,0.106,1.284,0.177v0.96l-1.44-0.046l-0.927-0.022
		l-2.414,0.069l-0.13-0.151c0.204-1.486,0.306-3.013,0.306-4.576c0-1.986-0.121-3.21-0.363-3.672
		c-0.312-0.597-0.883-0.894-1.71-0.894c-0.532,0-0.993,0.137-1.385,0.407c-0.39,0.271-0.645,0.561-0.762,0.863
		c-0.055,0.125-0.082,0.52-0.082,1.188c0,2.836,0.012,4.46,0.035,4.87s0.09,0.665,0.2,0.76c0.14,0.116,0.663,0.198,1.57,0.245v0.96
		c-1.36-0.046-2.511-0.069-3.446-0.069c-0.55-0.002-1.562,0.021-3.03,0.069L362.836,411.432z M387.295,409.168l0.338,0.342
		l-0.524,1.12c-0.562,0.351-1.166,0.612-1.811,0.786c-0.646,0.176-1.33,0.262-2.058,0.262c-1.703,0-3.046-0.494-4.026-1.483
		c-0.979-0.988-1.472-2.38-1.472-4.17c0-1.134,0.145-2.072,0.434-2.814c0.234-0.602,0.62-1.104,1.154-1.502s1.152-0.777,1.852-1.137
		c0.7-0.36,1.468-0.54,2.304-0.54c1.279,0,2.34,0.359,3.176,1.074c0.837,0.717,1.255,1.869,1.255,3.46
		c0,0.195-0.016,0.492-0.047,0.892l-1.918,0.352c-0.594,0.04-1.45,0.061-2.574,0.061h-2.54c0.118,1.347,0.521,2.361,1.208,3.044
		c0.688,0.682,1.563,1.02,2.627,1.02c0.446,0,0.888-0.062,1.325-0.191c0.437-0.129,0.87-0.32,1.3-0.572L387.295,409.168z
		 M380.765,404.623c0.704,0.062,1.407,0.094,2.11,0.094c0.617,0,1.266-0.03,1.945-0.094l0.012-0.553c0-0.963-0.176-1.668-0.527-2.11
		s-0.828-0.665-1.43-0.665c-0.422,0-0.785,0.104-1.09,0.312c-0.305,0.207-0.53,0.5-0.68,0.875
		C380.957,402.859,380.845,403.572,380.765,404.623L380.765,404.623z M395.567,411.432v-0.96c0.883-0.031,1.393-0.087,1.529-0.165
		c0.138-0.078,0.225-0.297,0.264-0.655c0.06-0.493,0.093-1.58,0.093-3.264c0-0.727-0.012-1.399-0.035-2.018l-0.035-1.374
		c0-0.453-0.05-0.732-0.146-0.84c-0.099-0.105-0.36-0.166-0.79-0.183l-0.88-0.034v-0.903c1.883-0.144,3.434-0.48,4.651-1.008
		l0.292,0.234c-0.117,1.494-0.176,3.672-0.176,6.53c0,1.65,0.027,2.65,0.082,2.993c0.04,0.244,0.11,0.399,0.215,0.47
		c0.105,0.07,0.615,0.143,1.53,0.212v0.96c-1.407-0.046-2.497-0.069-3.271-0.069c-0.409,0-1.52,0.024-3.326,0.071L395.567,411.432z
		 M398.824,394.428c0.5,0,0.928,0.178,1.283,0.533c0.354,0.355,0.532,0.788,0.532,1.296c0,0.5-0.178,0.928-0.532,1.283
		c-0.355,0.354-0.787,0.532-1.296,0.532c-0.5,0-0.928-0.179-1.282-0.533c-0.355-0.355-0.534-0.784-0.534-1.284
		c0-0.508,0.178-0.94,0.533-1.295c0.354-0.355,0.786-0.532,1.294-0.532L398.824,394.428z M403.489,411.432v-0.96
		c0.852-0.048,1.332-0.115,1.439-0.206c0.108-0.09,0.178-0.29,0.2-0.604c0.047-0.79,0.07-2.184,0.07-4.178
		c0-0.986-0.017-1.836-0.047-2.547c-0.016-0.438-0.046-0.695-0.091-0.775c-0.039-0.062-0.103-0.11-0.189-0.14
		c-0.083-0.032-0.546-0.061-1.384-0.083v-0.903c0.424,0,1.084-0.09,1.979-0.271c0.896-0.18,1.65-0.394,2.263-0.63l0.315-0.106
		c0.11,0,0.164,0.09,0.164,0.27l-0.012,0.105c-0.023,0.22-0.035,0.779-0.035,1.688l1.814-1.522c0.228-0.195,0.461-0.328,0.7-0.398
		c0.346-0.094,0.764-0.14,1.253-0.14c0.826,0,1.504,0.142,2.03,0.43c0.526,0.284,0.913,0.68,1.16,1.185
		c0.243,0.507,0.366,1.29,0.366,2.355c0,0.47-0.013,1.014-0.035,1.633c-0.04,1.269-0.061,2.363-0.061,3.287
		c0,0.525,0.043,0.89,0.131,1.094c0.06,0.141,0.149,0.234,0.263,0.28s0.54,0.106,1.283,0.177v0.96l-1.44-0.046l-0.927-0.022
		l-2.415,0.069l-0.13-0.151c0.204-1.486,0.306-3.013,0.306-4.576c0-1.986-0.12-3.21-0.362-3.672
		c-0.312-0.597-0.883-0.894-1.71-0.894c-0.531,0-0.992,0.137-1.384,0.407c-0.39,0.271-0.645,0.561-0.762,0.863
		c-0.055,0.125-0.082,0.52-0.082,1.188c0,2.836,0.012,4.46,0.035,4.87c0.022,0.41,0.09,0.665,0.2,0.76
		c0.14,0.116,0.662,0.198,1.569,0.245v0.96c-1.359-0.046-2.51-0.069-3.445-0.069C405.97,411.361,404.957,411.385,403.489,411.432
		L403.489,411.432z M426.703,404.248h-0.96c-0.056-0.93-0.122-1.465-0.2-1.605c-0.102-0.22-0.332-0.418-0.688-0.598
		c-0.356-0.18-0.806-0.27-1.347-0.27c-0.83,0-1.437,0.237-1.814,0.71c-0.38,0.476-0.57,1.326-0.57,2.558
		c0,1.56,0.354,2.764,1.066,3.613c0.712,0.852,1.628,1.274,2.744,1.274c0.406,0,0.78-0.033,1.12-0.104s0.65-0.172,0.931-0.305
		l0.197,0.26c-0.17,0.372-0.327,0.75-0.477,1.13c-0.516,0.256-1.04,0.447-1.576,0.576c-0.535,0.127-1.076,0.189-1.625,0.189
		c-1.703,0-3.03-0.47-3.979-1.413c-0.95-0.939-1.426-2.279-1.426-4.018c0-0.64,0.062-1.22,0.188-1.74
		c0.125-0.52,0.295-0.963,0.51-1.326c0.215-0.362,0.45-0.659,0.71-0.888c0.155-0.125,0.827-0.56,2.016-1.3
		c0.694-0.44,1.199-0.71,1.518-0.812c0.318-0.102,0.74-0.151,1.272-0.151c0.47,0,0.926,0.035,1.369,0.104
		c0.444,0.07,0.881,0.176,1.303,0.316l0.199,0.21c-0.281,1.307-0.441,2.502-0.479,3.588H426.703z M431.14,407.928
		c0.518,0,0.958,0.183,1.32,0.545c0.366,0.363,0.548,0.808,0.548,1.33c0,0.517-0.182,0.957-0.547,1.324
		c-0.362,0.367-0.804,0.55-1.32,0.55c-0.516,0-0.96-0.183-1.33-0.55c-0.369-0.367-0.552-0.81-0.552-1.324
		c0-0.514,0.185-0.957,0.547-1.324C430.171,408.109,430.615,407.927,431.14,407.928L431.14,407.928z"/>
</g>
</svg>
